# xmcd
#
# Track frame offsets: 
#        150
#        17370
#        44742
#        67600
#        85582
#        100985
#        119972
#        138180
#        156472
#        182057
#
# Disc length: 2703 seconds
#
# Revision: 1
# Processed by: cddbd v1.5.2PL0 Copyright (c) Steve Scherf et al.
# Submitted via: ExactAudioCopy v1.0b2
#
DISCID=810a8d0a
DTITLE=Various Artist - Space Battleship Yamato CD-BOX - Final Yamato Part 1
DYEAR=2004
DGENRE=Soundtrack
TTITLE0=Aquarius - Planet of Water
TTITLE1=Aquarius - 4.5 Billion Years
TTITLE2=Yamato's Pathetic Sortie
TTITLE3=Lugal Jr.'s War
TTITLE4=Yuki
TTITLE5=History of the Uruku
TTITLE6=The Battle of Pluto
TTITLE7=Planet Deingil
TTITLE8=Fight! Cosmo Tiger
TTITLE9=Aquarius - Planet of Mystery
EXTD=YEAR: 1983.1.21
EXTT0=
EXTT1=
EXTT2=
EXTT3=
EXTT4=
EXTT5=
EXTT6=
EXTT7=
EXTT8=
EXTT9=
PLAYORDER=
